<svg xmlns="http://www.w3.org/2000/svg" viewBox="0 0 64 64" width="64" height="64" role="img" aria-label="Bhuvesh favicon">
  <defs>
    <linearGradient id="bhuveshGradient" x1="0" y1="0" x2="1" y2="1">
      <stop offset="0%" stop-color="#00B4D8"/>
      <stop offset="100%" stop-color="#023E8A"/>
    </linearGradient>
    <!-- Creates a cut only on the left side -->
    <clipPath id="leftCut">
      <path d="M0 0h64v64H0z M20 0L0 64H10L28 0z" fill="black" />
    </clipPath>
  </defs>

  <!-- dark background -->
  <rect width="64" height="64" rx="12" fill="#0F172A"/>

  <!-- centered stylized B with gradient fill and left cut -->
  <g clip-path="url(#leftCut)" transform="translate(12,8)">
    <path d="
      M10 8h14c7 0 12 3 12 8 0 3-1 5-3 6
      2 1 3 3 3 6 0 5-5 8-12 8H10z
      M18 18h3c3 0 5-1 5-3s-2-3-5-3h-3z
      M18 30h3c3 0 5-1 5-3s-2-3-5-3h-3z
    " fill="url(#bhuveshGradient)" />
  </g>
</svg>
